<?xml version="1.0" standalone="no"?><!DOCTYPE svg PUBLIC "-//W3C//DTD SVG 1.1//EN" "http://www.w3.org/Graphics/SVG/1.1/DTD/svg11.dtd"><svg t="1773129793365" class="icon" viewBox="0 0 1024 1024" version="1.1" xmlns="http://www.w3.org/2000/svg" p-id="4967" xmlns:xlink="http://www.w3.org/1999/xlink" width="200" height="200"><path d="M279.488 732.544l-3.008 5.12c-6.08-1.408-12.864-1.6-18.048-4.544-8-4.608-14.72-11.392-22.208-16.832-28.16-20.48-56.192-41.216-84.992-60.8a44.992 44.992 0 0 0-24-6.592c-11.008 0-17.472 11.2-12.992 21.504a38.336 38.336 0 0 0 11.968 16.256c23.616 16 48.256 30.592 71.808 46.656 14.016 9.6 26.88 20.8 39.68 31.936 2.24 1.92 1.728 6.976 2.432 10.56-4.096 0.576-8.832 2.752-12.16 1.408-7.872-3.2-14.976-8.256-22.528-12.16-26.176-13.44-52.224-27.072-78.656-40.064-8.832-4.416-16.384-0.768-22.72 6.592-6.848 8-2.304 15.168 1.92 21.248 3.84 5.44 9.6 10.176 15.488 13.44 9.408 5.376 19.584 9.28 29.504 13.76l51.008 22.592c7.04 3.072 13.632 7.68 9.152 15.488-1.6 2.752-11.648 3.072-16.448 1.088-14.336-5.952-27.584-14.656-42.048-20.288a128 128 0 0 0-37.824-9.28c-11.84-0.704-17.28 12.352-8.96 20.8 9.216 9.28 19.2 18.752 30.72 24.576 48.64 24.64 100.672 40.512 154.56 46.784 30.336 3.584 61.824 4.736 92.096-7.744 42.624-17.6 79.232-82.048 34.368-127.424-31.616-32-58.624-68.288-73.344-112a51.2 51.2 0 0 0-7.68-14.4c-10.496-13.76-22.912-12.544-30.912 2.56-11.584 21.952-8.384 38.08 9.152 59.328 6.4 7.808 15.36 13.696 20.736 22.08a21.632 21.632 0 0 1 0.384 18.752c-1.92 3.456-12.224 5.824-16.192 3.776a56.192 56.192 0 0 1-19.904-17.856c-18.944-28.288-35.904-57.984-55.488-85.76a77.76 77.76 0 0 0-30.08-24.704c-15.808-7.232-26.496 1.472-24.192 18.816a54.4 54.4 0 0 0 11.968 26.688c19.2 22.4 40.064 43.456 59.904 65.408 6.464 7.168 11.776 15.424 17.536 23.232m421.248 152.576c24.192-3.648 51.328-5.76 77.376-12.288 41.152-10.368 82.56-21.248 118.4-45.76 18.048-12.352 23.296-21.056 18.304-30.976-4.736-9.28-20.48-10.112-38.272-1.472-14.72 7.104-29.056 15.04-43.776 22.016-7.36 3.456-17.344 10.88-22.656 1.088-5.824-10.688 6.4-14.144 13.632-17.408 16.96-7.68 34.56-13.696 51.392-21.504 11.968-5.504 23.68-11.904 34.304-19.584 8.128-5.952 15.04-15.168 8.704-26.048-5.824-9.984-15.168-12.544-26.24-7.232-7.68 3.648-16.192 5.76-23.616 9.792-23.808 12.928-47.232 26.688-71.168 39.552-4.096 2.176-9.792 1.28-14.784 1.92 0.512-5.76-0.128-12.032 1.984-17.088 1.6-3.712 6.656-6.272 10.56-8.704 14.464-9.024 29.44-17.28 43.52-26.88 21.12-14.272 41.92-28.992 62.208-44.352a17.28 17.28 0 0 0 3.392-25.088c-4.16-4.8-14.848-4.608-22.784-5.248-3.328-0.32-7.296 2.56-10.432 4.736-27.264 19.072-54.528 38.144-81.472 57.6-10.688 7.68-20.416 16.64-31.36 23.936-2.88 1.92-8.64-0.448-13.056-0.896 0.448-4.224-0.192-8.96 1.6-12.48 2.048-4.032 6.272-6.848 9.472-10.24 20.096-21.696 40.832-42.816 59.968-65.28 7.232-8.576 12.416-19.84 15.232-30.784 3.392-12.928-2.688-19.712-15.808-19.2a36.032 36.032 0 0 0-20.864 7.104 138.752 138.752 0 0 0-24.576 27.776c-15.936 23.808-30.4 48.64-46.272 72.512a71.36 71.36 0 0 1-20.352 21.184c-4.096 2.56-15.04 0.576-18.112-3.264-3.072-3.84-1.856-13.248 0.704-18.688 2.88-6.016 8.96-10.752 14.4-15.168a51.072 51.072 0 0 0 19.2-47.552c-1.28-12.992-9.344-28.8-18.432-29.248-13.76-0.64-19.392 9.856-24.256 20.992-16.384 37.952-35.584 73.984-65.92 103.424-14.272 14.016-26.24 31.104-27.52 52.48-2.56 43.072 25.344 79.744 68.48 89.408 14.976 3.328 30.464 4.416 48.896 6.912m156.416-316.672c2.624-32.384 6.592-61.504 6.784-90.688 0.128-17.408-5.504-34.88-8.704-52.288a334.976 334.976 0 0 0-128.128-210.24c-63.296-48.768-135.04-80.896-218.816-73.216-18.56 1.728-38.016-2.304-56.064 1.152-86.4 16.512-160.256 54.912-217.28 124.032-54.144 65.664-79.168 141.504-82.176 224.896-0.96 26.112 5.824 52.48 9.6 82.24 18.24-19.328 38.72-23.936 58.368-18.368 14.72 4.224 27.968 15.872 40.192 26.24 8.96 7.488 14.08 11.52 24.704 1.6a48.448 48.448 0 0 1 42.432-12.16c27.712 4.096 44.096 21.888 52.544 44.352 15.488 40.96 41.408 74.24 68.864 106.944 24.96 29.632 37.376 62.08 25.92 100.864-1.088 3.712-3.84 7.488-3.456 10.88 0.448 3.648 3.84 9.792 5.952 9.856 20.224 0.448 40.576 0.64 60.672-0.96 8-0.64 13.696-5.76 8.128-16.64a61.056 61.056 0 0 1-5.376-24.64c-1.536-35.52 12.8-65.28 37.12-89.728 22.784-23.04 40.32-49.152 53.952-78.144 4.288-9.152 6.72-19.328 11.968-27.712 21.504-34.432 59.52-49.408 89.92-23.872 13.632 11.52 19.008 5.888 27.968-3.008 28.992-28.8 54.528-32.512 94.912-11.392m48.64-76.16c-5.248 32.96-9.6 66.112-16.128 98.88-2.432 12.16 0 15.872 11.712 18.88 36.864 9.536 52.864 37.76 43.2 74.432-2.048 7.872-2.88 14.016 3.072 21.312 13.44 16.448 13.632 35.392 8.256 55.36a48.64 48.64 0 0 0-0.256 24.32c5.952 21.888 1.792 41.792-14.72 55.616a275.2 275.2 0 0 1-58.24 37.76c-57.664 27.392-119.104 42.048-182.784 44.032-41.728 1.344-82.304-5.888-116.096-34.56a34.688 34.688 0 0 0-20.672-6.656 3056.512 3056.512 0 0 0-105.28 0.64c-7.168 0.128-16.32 1.152-21.184 5.504-33.344 29.824-74.24 36.48-115.84 35.008a474.112 474.112 0 0 1-203.904-53.76 156.416 156.416 0 0 1-32.768-22.144c-18.624-16.896-26.56-37.696-18.368-63.296a33.28 33.28 0 0 0-0.448-19.84c-7.552-21.44-5.632-40.768 7.68-59.648 3.328-4.672 3.904-12.992 2.56-18.88-8.704-36.288 5.248-63.36 40.832-74.496 11.136-3.52 12.288-7.616 9.408-18.24a382.4 382.4 0 0 1-11.776-143.68c20.928-185.28 167.36-327.552 342.784-347.392 156.672-17.664 283.584 39.36 376.448 166.08 48.128 65.728 70.592 141.952 72.512 224.768" fill="#FEAC06" p-id="4968"></path><path d="M780.16 408.576c-0.32-15.488-16.256-32-30.848-32-17.92 0.128-35.008 16.512-34.752 33.472a34.56 34.56 0 0 0 32.96 32.192c20.928 0 33.152-12.608 32.64-33.664m-507.264 33.664c16 0.32 33.152-15.936 33.792-32 0.64-16.704-17.024-33.664-35.072-33.6-17.856 0-29.76 12.288-30.464 31.104-0.832 21.248 11.008 34.048 31.744 34.496m51.84-63.424a46.4 46.4 0 0 0 16 33.536c11.2 9.728 18.752 10.176 26.88-2.368 9.344-14.592 19.52-17.6 35.136-10.752 11.456 4.992 18.624 0 21.76-12.8 5.056-20.48-1.344-37.248-16.192-50.24-16-14.08-35.328-15.936-54.592-7.552-18.688 8.128-28.736 23.04-28.992 50.176m306.688-54.4c-34.048-0.064-59.712 31.616-50.752 62.592 4.032 13.952 8.64 17.856 21.504 12.288 16.064-6.976 25.984-2.56 35.712 10.624 8.896 12.16 15.168 11.84 26.752 2.176a50.048 50.048 0 0 0 14.208-53.184c-7.68-22.272-24.384-34.432-47.36-34.496M428.48 615.104c34.048 28.608 73.792 29.056 113.792 19.712 14.848-3.456 27.776-15.04 41.6-22.976 37.888-25.152 49.92-64 54.144-106.048 1.536-14.72-6.4-19.392-21.056-13.888-15.296 5.76-29.824 13.312-44.8 20.032-42.624 19.2-85.568 21.76-128.896 1.984-15.552-7.04-30.912-14.72-46.72-21.312-17.92-7.424-25.408-2.56-23.872 16.96 3.328 42.88 18.944 80 55.808 105.536m428.608-46.72c-40.384-21.056-65.92-17.344-94.912 11.456-8.96 8.96-14.336 14.464-27.968 3.008-30.4-25.536-68.416-10.56-89.92 23.872-5.248 8.384-7.68 18.56-11.968 27.712a276.096 276.096 0 0 1-54.016 78.144c-24.192 24.448-38.592 54.208-37.056 89.728 0.384 8.32 1.664 17.408 5.376 24.704 5.568 10.752-0.128 16-8.128 16.64a597.696 597.696 0 0 1-60.672 0.896c-2.176 0-5.504-6.208-5.952-9.792-0.448-3.456 2.368-7.232 3.456-10.944 11.456-38.784-0.96-71.232-25.92-100.864-27.52-32.64-53.376-65.92-68.864-106.944-8.448-22.4-24.832-40.256-52.544-44.352a48.448 48.448 0 0 0-42.432 12.16c-10.688 9.984-15.744 5.888-24.704-1.664-12.16-10.304-25.472-22.016-40.192-26.176-19.584-5.568-40.128-0.96-58.432 18.368-3.712-29.76-10.496-56.128-9.6-82.24 3.072-83.392 28.096-159.232 82.24-224.896 57.024-69.12 130.944-107.52 217.28-124.032 18.048-3.456 37.44 0.576 56.064-1.152 83.84-7.68 155.52 24.448 218.816 73.216a334.976 334.976 0 0 1 128.128 210.24c3.2 17.408 8.832 34.88 8.704 52.288-0.192 29.184-4.16 58.304-6.784 90.688" fill="#FED11E" p-id="4969"></path><path d="M700.736 885.12c-18.432-2.56-33.92-3.584-48.896-6.912-43.136-9.6-71.04-46.336-68.48-89.408 1.28-21.376 13.248-38.464 27.52-52.48 30.336-29.44 49.536-65.472 65.92-103.424 4.864-11.136 10.496-21.696 24.256-20.992 9.088 0.448 17.152 16.256 18.432 29.248a51.072 51.072 0 0 1-19.2 47.552c-5.376 4.48-11.52 9.152-14.4 15.168-2.56 5.44-3.776 14.912-0.704 18.688 3.072 3.84 14.016 5.824 18.112 3.264 8.128-5.056 14.976-13.056 20.352-21.184 15.872-23.872 30.336-48.64 46.336-72.512 6.848-10.24 15.232-19.84 24.512-27.776a36.032 36.032 0 0 1 20.864-7.104c13.12-0.512 19.2 6.272 15.808 19.2-2.816 10.88-8 22.208-15.232 30.72-19.136 22.528-39.872 43.648-59.968 65.28-3.2 3.456-7.424 6.272-9.472 10.24-1.792 3.584-1.152 8.32-1.6 12.544 4.48 0.448 10.24 2.816 13.056 0.896 10.944-7.232 20.672-16.32 31.36-24 26.944-19.392 54.208-38.464 81.472-57.536 3.136-2.176 7.04-5.056 10.432-4.736 7.936 0.64 18.56 0.448 22.784 5.248a17.28 17.28 0 0 1-3.392 25.088c-20.288 15.36-41.088 30.08-62.208 44.416-14.08 9.536-29.056 17.792-43.52 26.816-3.904 2.432-8.96 4.992-10.56 8.704-2.112 5.056-1.472 11.328-1.984 17.024 4.992-0.512 10.688 0.32 14.784-1.92 23.936-12.8 47.36-26.56 71.168-39.488 7.424-4.096 15.936-6.144 23.552-9.792 11.136-5.312 20.48-2.752 26.24 7.232 6.4 10.88-0.512 20.096-8.64 26.048-10.56 7.68-22.4 14.08-34.304 19.584-16.832 7.808-34.432 13.888-51.392 21.504-7.232 3.2-19.456 6.72-13.632 17.408 5.312 9.792 15.36 2.368 22.656-1.088 14.72-7.04 29.056-14.912 43.776-22.016 17.792-8.64 33.536-7.808 38.272 1.472 4.992 9.92-0.256 18.624-18.304 30.976-35.84 24.512-77.248 35.392-118.4 45.76-26.048 6.592-53.184 8.64-77.44 12.288M279.488 732.544c-5.76-7.808-11.072-16.064-17.536-23.232-19.84-21.952-40.64-43.008-59.904-65.408a54.4 54.4 0 0 1-11.968-26.688c-2.304-17.28 8.32-26.048 24.128-18.816 11.52 5.248 22.848 14.336 30.08 24.64 19.648 27.84 36.608 57.536 55.552 85.824 4.864 7.296 12.16 13.824 19.904 17.856 3.968 2.048 14.272-0.32 16.192-3.776a21.632 21.632 0 0 0-0.384-18.752c-5.312-8.32-14.336-14.272-20.736-22.08-17.536-21.248-20.736-37.376-9.152-59.328 8-15.104 20.48-16.32 30.912-2.56a51.2 51.2 0 0 1 7.68 14.336c14.72 43.776 41.728 80 73.344 112 44.8 45.44 8.256 109.888-34.368 127.488-30.272 12.48-61.76 11.328-92.096 7.744a459.712 459.712 0 0 1-154.56-46.72c-11.52-5.888-21.504-15.36-30.72-24.64-8.32-8.448-2.88-21.504 8.96-20.8a128 128 0 0 1 37.76 9.28c14.528 5.632 27.776 14.336 42.112 20.288 4.8 1.92 14.848 1.664 16.448-1.088 4.48-7.808-2.112-12.416-9.152-15.488l-51.008-22.592c-9.92-4.48-20.096-8.384-29.504-13.696a47.488 47.488 0 0 1-15.488-13.504c-4.224-6.08-8.768-13.248-1.92-21.248 6.4-7.36 13.888-11.008 22.72-6.592 26.432 12.992 52.48 26.56 78.656 40.064 7.552 3.904 14.656 8.96 22.528 12.16 3.328 1.28 8.064-0.832 12.16-1.408-0.704-3.584-0.192-8.64-2.432-10.56-12.8-11.136-25.664-22.4-39.68-31.936-23.552-16.064-48.192-30.592-71.808-46.656a38.336 38.336 0 0 1-11.968-16.256c-4.48-10.24 1.984-21.504 12.992-21.504 8.064 0 17.472 2.112 24 6.592 28.8 19.584 56.832 40.32 84.992 60.8 7.552 5.44 14.208 12.16 22.208 16.832 5.12 2.944 11.968 3.136 18.048 4.544l3.008-5.12z" fill="#FED11E" p-id="4970"></path><path d="M428.544 615.04c-36.864-25.472-52.48-62.592-55.808-105.472-1.536-19.52 6.016-24.32 23.872-16.96 15.808 6.592 31.168 14.208 46.72 21.312 43.328 19.84 86.272 17.216 128.96-1.984 14.912-6.72 29.44-14.336 44.8-20.032 14.592-5.504 22.528-0.768 20.992 13.888-4.288 42.048-16.256 80.896-54.144 106.048-9.728-10.624-18.048-23.04-29.376-31.552-16.896-12.8-22.528-10.88-36.032 6.144-10.368 12.992-10.368 12.992-20.992-0.768-11.904-15.488-20.928-18.304-36.608-6.016-12.416 9.728-21.76 23.488-32.384 35.456" fill="#3E3D44" p-id="4971"></path><path d="M428.544 615.04c10.688-11.904 19.968-25.6 32.384-35.392 15.68-12.288 24.704-9.472 36.608 6.016 10.624 13.76 10.624 13.76 20.992 0.768 13.44-17.024 19.136-19.008 36.032-6.144 11.328 8.576 19.648 20.928 29.376 31.552-13.824 7.936-26.752 19.52-41.6 23.04-40 9.28-79.744 8.832-113.792-19.84" fill="#E94F4D" p-id="4972"></path><path d="M631.424 324.48c23.04 0 39.68 12.16 47.36 34.432 6.4 18.624 0.512 40.96-14.144 53.184-11.584 9.664-17.92 9.92-26.752-2.176-9.728-13.184-19.648-17.6-35.712-10.624-12.864 5.568-17.472 1.664-21.504-12.288-8.96-31.04 16.704-62.72 50.752-62.592M324.736 378.816c0.256-27.136 10.24-42.048 28.992-50.176 19.264-8.32 38.656-6.464 54.592 7.552 14.784 12.992 21.248 29.76 16.192 50.24-3.136 12.8-10.304 17.792-21.76 12.8-15.616-6.784-25.792-3.84-35.2 10.752-8.064 12.544-15.552 12.096-26.88 2.368a46.4 46.4 0 0 1-15.936-33.536" fill="#3E3D44" p-id="4973"></path><path d="M272.896 442.24c-20.736-0.448-32.576-13.248-31.744-34.496 0.64-18.816 12.608-31.04 30.464-31.104 18.048-0.064 35.648 16.896 35.072 33.664-0.64 16-17.792 32.256-33.792 31.936M780.16 408.576c0.512 21.12-11.712 33.6-32.64 33.664a34.56 34.56 0 0 1-32.96-32.192c-0.256-16.96 16.832-33.344 34.752-33.408 14.592-0.064 30.528 16.448 30.848 31.936" fill="#FEAC06" p-id="4974"></path></svg>